<?xml version="1.0" encoding="UTF-8" standalone="no"?>
<!DOCTYPE svg PUBLIC "-//W3C//DTD SVG 1.1//EN" "http://www.w3.org/Graphics/SVG/1.1/DTD/svg11.dtd">
<svg width="100%" height="100%" viewBox="0 0 1890 1701" version="1.1" xmlns="http://www.w3.org/2000/svg" xmlns:xlink="http://www.w3.org/1999/xlink" xml:space="preserve" xmlns:serif="http://www.serif.com/" style="fill-rule:evenodd;clip-rule:evenodd;stroke-miterlimit:8;">
    <g transform="matrix(1,0,0,1,-2150.71,0)">
        <g id="Figure1" transform="matrix(1,0,0,1,1855.43,-283.465)">
            <rect x="295.276" y="283.465" width="1889.76" height="1700.79" style="fill:white;"/>
            <g transform="matrix(2.77904,0,0,3.08607,566.133,-602.363)">
                <path d="M301.5,433.667C301.5,431.642 303.142,430 305.167,430L379.833,430C381.858,430 383.5,431.642 383.5,433.667L383.5,448.333C383.5,450.358 381.858,452 379.833,452L305.167,452C303.142,452 301.5,450.358 301.5,448.333L301.5,433.667Z" style="fill:rgb(175,171,171);stroke:rgb(175,171,171);stroke-width:1.42px;"/>
            </g>
            <g transform="matrix(2.77904,0,0,3.08607,566.133,-73.1019)">
                <rect x="130" y="336.5" width="142.5" height="37.5" style="fill:rgb(157,195,230);stroke:black;stroke-width:1.42px;"/>
            </g>
            <g transform="matrix(2.77904,0,0,3.08607,566.133,-31.4399)">
                <rect x="139.5" y="330" width="142.5" height="37" style="fill:rgb(157,195,230);stroke:black;stroke-width:1.42px;"/>
            </g>
            <g transform="matrix(2.77904,0,0,3.08607,566.133,14.8511)">
                <rect x="149" y="322.5" width="142.5" height="37" style="fill:rgb(157,195,230);stroke:black;stroke-width:1.42px;"/>
            </g>
            <g transform="matrix(2.77904,0,0,3.08607,566.133,-691.859)">
                <rect x="130.5" y="437" width="142.5" height="37" style="fill:rgb(112,48,160);stroke:black;stroke-width:1.42px;"/>
            </g>
            <g transform="matrix(2.77904,0,0,3.08607,566.133,-648.654)">
                <rect x="140" y="430" width="142.5" height="37" style="fill:rgb(112,48,160);stroke:black;stroke-width:1.42px;"/>
            </g>
            <g transform="matrix(2.77904,0,0,3.08607,566.133,-602.363)">
                <rect x="149.5" y="422.5" width="142.5" height="37" style="fill:rgb(112,48,160);stroke:black;stroke-width:1.42px;"/>
            </g>
            <g transform="matrix(2.77904,0,0,3.08607,566.133,323.458)">
                <text x="118.544px" y="44px" style="font-family:'CourierNewPS-BoldMT', 'Courier New', monospace;font-weight:700;font-size:12px;fill:rgb(112,48,160);">ATG<tspan x="140.295px " y="44px ">C</tspan>TA<tspan x="162.045px " y="44px ">-</tspan>--<tspan x="183.795px " y="44px ">G</tspan>CG<tspan x="205.546px " y="44px ">C</tspan>--<tspan x="227.296px " y="44px ">-</tspan>-G<tspan x="249.046px " y="44px ">C</tspan>GC<tspan x="270.797px " y="44px ">T</tspan>AG</text>
            </g>
            <g transform="matrix(2.77904,0,0,3.08607,566.133,323.458)">
                <text x="118.544px" y="58px" style="font-family:'CourierNewPSMT', 'Courier New', monospace;font-size:12px;">ATG<tspan x="140.295px " y="58px ">C</tspan>TA<tspan x="162.046px " y="58px ">-</tspan>--<tspan x="183.797px " y="58px ">G</tspan>CG<tspan x="205.547px " y="58px ">C</tspan>AT<tspan x="227.298px " y="58px ">A</tspan>TG<tspan x="249.049px " y="58px ">C</tspan>GC<tspan x="270.8px " y="58px ">T</tspan>AG</text>
            </g>
            <g transform="matrix(2.77904,0,0,3.08607,566.133,323.458)">
                <text x="118.544px" y="72px" style="font-family:'CourierNewPSMT', 'Courier New', monospace;font-size:12px;">ATG<tspan x="140.295px " y="72px ">C</tspan>TA<tspan x="162.046px " y="72px ">-</tspan>--<tspan x="183.797px " y="72px ">G</tspan>CG<tspan x="205.547px " y="72px ">C</tspan>AT<tspan x="227.298px " y="72px ">A</tspan>TG<tspan x="249.049px " y="72px ">C</tspan>GC<tspan x="270.8px " y="72px ">T</tspan>AG</text>
            </g>
            <g transform="matrix(2.77904,0,0,3.08607,566.133,323.458)">
                <text x="156.358px" y="274.5px" style="font-family:'CourierNewPS-BoldMT', 'Courier New', monospace;font-weight:700;font-size:12px;fill:rgb(46,117,182);">ATG<tspan x="178.109px " y="274.5px ">C</tspan>TA<tspan x="199.86px " y="274.5px ">G</tspan>CG<tspan x="221.611px " y="274.5px ">C</tspan>AT<tspan x="243.363px " y="274.5px ">A</tspan>TG<tspan x="265.114px " y="274.5px ">C</tspan>GC</text>
            </g>
            <g transform="matrix(2.77904,0,0,3.08607,566.133,323.458)">
                <text x="318.432px" y="144.5px" style="font-family:'AvenirNextCondensed-Italic', 'Avenir Next Condensed', sans-serif;font-style:italic;font-stretch:condensed;font-size:14px;">Chain F<tspan x="354.512px 357.535px " y="144.5px 144.5px ">il</tspan>e</text>
            </g>
            <g transform="matrix(2.77904,0,0,3.08607,566.133,323.458)">
                <text x="161.296px" y="245px" style="font-family:'AvenirNextCondensed-Regular', 'Avenir Next Condensed', sans-serif;font-stretch:condensed;font-size:12px;fill:white;">C<tspan x="166.91px 172.201px " y="245px 245px ">on</tspan>served</text>
                <text x="207.792px" y="245px" style="font-family:'AvenirNextCondensed-Regular', 'Avenir Next Condensed', sans-serif;font-stretch:condensed;font-size:12px;fill:white;">R</text>
                <text x="213.542px" y="245px" style="font-family:'AvenirNextCondensed-Regular', 'Avenir Next Condensed', sans-serif;font-stretch:condensed;font-size:12px;fill:white;">eg</text>
                <text x="224.293px" y="245px" style="font-family:'AvenirNextCondensed-Regular', 'Avenir Next Condensed', sans-serif;font-stretch:condensed;font-size:12px;fill:white;">ion</text>
                <text x="237.792px" y="245px" style="font-family:'AvenirNextCondensed-Regular', 'Avenir Next Condensed', sans-serif;font-stretch:condensed;font-size:12px;fill:white;">s,<tspan x="244.185px 246.475px " y="245px 245px "> s</tspan>a</text>
                <text x="255.473px" y="245px" style="font-family:'AvenirNextCondensed-Regular', 'Avenir Next Condensed', sans-serif;font-stretch:condensed;font-size:12px;fill:white;">rH</text>
                <text x="265.597px" y="245px" style="font-family:'AvenirNextCondensed-Regular', 'Avenir Next Condensed', sans-serif;font-stretch:condensed;font-size:12px;fill:white;">a</text>
                <text x="270.473px" y="245px" style="font-family:'AvenirNextCondensed-Regular', 'Avenir Next Condensed', sans-serif;font-stretch:condensed;font-size:12px;fill:white;">r1</text>
            </g>
            <g transform="matrix(2.77904,0,0,3.08607,566.133,323.458)">
                <text x="163.938px" y="144.5px" style="font-family:'AvenirNextCondensed-Regular', 'Avenir Next Condensed', sans-serif;font-stretch:condensed;font-size:12px;fill:white;">C<tspan x="169.552px 174.843px " y="144.5px 144.5px ">on</tspan>served</text>
                <text x="210.435px" y="144.5px" style="font-family:'AvenirNextCondensed-Regular', 'Avenir Next Condensed', sans-serif;font-stretch:condensed;font-size:12px;fill:white;">R</text>
                <text x="216.185px" y="144.5px" style="font-family:'AvenirNextCondensed-Regular', 'Avenir Next Condensed', sans-serif;font-stretch:condensed;font-size:12px;fill:white;">eg</text>
                <text x="226.936px" y="144.5px" style="font-family:'AvenirNextCondensed-Regular', 'Avenir Next Condensed', sans-serif;font-stretch:condensed;font-size:12px;fill:white;">ion</text>
                <text x="240.435px" y="144.5px" style="font-family:'AvenirNextCondensed-Regular', 'Avenir Next Condensed', sans-serif;font-stretch:condensed;font-size:12px;fill:white;">s,</text>
                <text x="249.114px" y="144.5px" style="font-family:'AvenirNextCondensed-Regular', 'Avenir Next Condensed', sans-serif;font-stretch:condensed;font-size:12px;fill:white;">mm1<tspan x="271.738px " y="144.5px ">0</tspan></text>
            </g>
            <g transform="matrix(2.77904,0,0,3.08607,566.133,323.458)">
                <text x="83.477px" y="311.5px" style="font-family:'CourierNewPS-BoldMT', 'Courier New', monospace;font-weight:700;font-size:12px;fill:rgb(191,144,0);">NNN<tspan x="105.227px " y="311.5px ">N</tspan>NN<tspan x="126.978px " y="311.5px ">N</tspan>NN<tspan x="148.729px " y="311.5px ">N</tspan>AT<tspan x="170.48px " y="311.5px ">G</tspan>C-<tspan x="192.231px " y="311.5px ">A</tspan>GC<tspan x="213.981px " y="311.5px ">G</tspan>TA<tspan x="235.732px " y="311.5px ">T</tspan>AT<tspan x="257.483px " y="311.5px ">G</tspan>CG<tspan x="279.234px " y="311.5px ">G</tspan>NN<tspan x="300.985px " y="311.5px ">N</tspan>NN<tspan x="322.736px " y="311.5px ">N</tspan>NN<tspan x="344.486px " y="311.5px ">N</tspan>NN<tspan x="366.237px " y="311.5px ">N</tspan>NN<tspan x="387.988px " y="311.5px ">N</tspan>NN<tspan x="409.739px " y="311.5px ">N</tspan>N</text>
            </g>
            <g transform="matrix(2.77904,0,0,3.08607,566.133,323.458)">
                <text x="136.809px" y="486.5px" style="font-family:'CourierNewPS-BoldMT', 'Courier New', monospace;font-weight:700;font-size:12px;fill:rgb(112,48,160);">ATG<tspan x="158.56px " y="486.5px ">C</tspan>TA<tspan x="180.31px " y="486.5px ">-</tspan>--<tspan x="202.06px " y="486.5px ">G</tspan>CG<tspan x="223.811px " y="486.5px ">C</tspan>--<tspan x="245.561px " y="486.5px ">-</tspan>-G<tspan x="267.311px " y="486.5px ">C</tspan>GC<tspan x="289.062px " y="486.5px ">T</tspan>AG</text>
            </g>
            <g transform="matrix(2.77904,0,0,3.08607,566.133,323.458)">
                <text x="136.809px" y="500.5px" style="font-family:'CourierNewPSMT', 'Courier New', monospace;font-size:12px;">ATG<tspan x="158.56px " y="500.5px ">C</tspan>TA<tspan x="180.311px " y="500.5px ">-</tspan>--<tspan x="202.062px " y="500.5px ">G</tspan>CG<tspan x="223.812px " y="500.5px ">C</tspan>AT<tspan x="245.563px " y="500.5px ">A</tspan>TG<tspan x="267.314px " y="500.5px ">C</tspan>GC<tspan x="289.065px " y="500.5px ">T</tspan>AG</text>
            </g>
            <g transform="matrix(2.77904,0,0,3.08607,566.133,323.458)">
                <text x="136.809px" y="514.5px" style="font-family:'CourierNewPSMT', 'Courier New', monospace;font-size:12px;">ATG<tspan x="158.56px " y="514.5px ">C</tspan>TA<tspan x="180.311px " y="514.5px ">-</tspan>--<tspan x="202.062px " y="514.5px ">G</tspan>CG<tspan x="223.812px " y="514.5px ">C</tspan>AT<tspan x="245.563px " y="514.5px ">A</tspan>TG<tspan x="267.314px " y="514.5px ">C</tspan>GC<tspan x="289.065px " y="514.5px ">T</tspan>AG</text>
            </g>
            <g transform="matrix(2.77904,0,0,3.08607,566.133,323.458)">
                <text x="135.513px" y="186px" style="font-family:'AvenirNextCondensed-Bold', 'Avenir Next Condensed', sans-serif;font-weight:700;font-stretch:condensed;font-size:16px;">1</text>
                <text x="143.887px" y="186px" style="font-family:'AvenirNextCondensed-Bold', 'Avenir Next Condensed', sans-serif;font-weight:700;font-stretch:condensed;font-size:16px;">.<tspan x="147.75px 151.06px " y="186px 186px "> L</tspan></text>
                <text x="157.85px" y="186px" style="font-family:'AvenirNextCondensed-Bold', 'Avenir Next Condensed', sans-serif;font-weight:700;font-stretch:condensed;font-size:16px;">if<tspan x="166.788px 171.792px " y="186px 186px ">to</tspan>v</text>
                <text x="187.162px" y="186px" style="font-family:'AvenirNextCondensed-Bold', 'Avenir Next Condensed', sans-serif;font-weight:700;font-stretch:condensed;font-size:16px;">er</text>
            </g>
            <g transform="matrix(2.77904,0,0,3.08607,566.133,323.458)">
                <text x="87.663px" y="292px" style="font-family:'AvenirNextCondensed-Bold', 'Avenir Next Condensed', sans-serif;font-weight:700;font-stretch:condensed;font-size:16px;">2</text>
                <text x="96.037px" y="292px" style="font-family:'AvenirNextCondensed-Bold', 'Avenir Next Condensed', sans-serif;font-weight:700;font-stretch:condensed;font-size:16px;">.<tspan x="99.9px 103.21px " y="292px 292px "> L</tspan></text>
                <text x="110px" y="292px" style="font-family:'AvenirNextCondensed-Bold', 'Avenir Next Condensed', sans-serif;font-weight:700;font-stretch:condensed;font-size:16px;">if<tspan x="118.938px 123.943px 131.827px 136.384px " y="292px 292px 292px 292px ">toff</tspan></text>
            </g>
            <g transform="matrix(2.77904,0,0,3.08607,566.133,323.458)">
                <text x="20.548px" y="460.5px" style="font-family:'AvenirNextCondensed-Bold', 'Avenir Next Condensed', sans-serif;font-weight:700;font-stretch:condensed;font-size:16px;">3</text>
                <text x="28.922px" y="460.5px" style="font-family:'AvenirNextCondensed-Bold', 'Avenir Next Condensed', sans-serif;font-weight:700;font-stretch:condensed;font-size:16px;">.<tspan x="32.817px 36.118px " y="460.5px 460.5px "> M</tspan>A</text>
                <text x="57.251px" y="460.5px" style="font-family:'AvenirNextCondensed-Bold', 'Avenir Next Condensed', sans-serif;font-weight:700;font-stretch:condensed;font-size:16px;">FFT<tspan x="77.314px 80.555px " y="460.5px 460.5px "> -</tspan>-</text>
                <text x="88.479px" y="460.5px" style="font-family:'AvenirNextCondensed-Bold', 'Avenir Next Condensed', sans-serif;font-weight:700;font-stretch:condensed;font-size:16px;">ad<tspan x="104.473px " y="460.5px ">d</tspan></text>
            </g>
            <g transform="matrix(2.77904,0,0,3.08607,566.133,323.458)">
                <text x="355.845px" y="429px" style="font-family:'CourierNewPS-BoldMT', 'Courier New', monospace;font-weight:700;font-size:12px;fill:rgb(112,48,160);">ATG<tspan x="377.595px " y="429px ">C</tspan>TA<tspan x="399.346px " y="429px ">-</tspan>--<tspan x="421.096px " y="429px ">G</tspan>CG<tspan x="442.846px " y="429px ">C</tspan>--<tspan x="464.597px " y="429px ">-</tspan>-G<tspan x="486.347px " y="429px ">C</tspan>GC<tspan x="508.097px " y="429px ">T</tspan>AG</text>
            </g>
            <g transform="matrix(2.77904,0,0,3.08607,566.133,323.458)">
                <text x="355.845px" y="443px" style="font-family:'CourierNewPSMT', 'Courier New', monospace;font-size:12px;">ATG<tspan x="377.596px " y="443px ">C</tspan>TA<tspan x="399.346px " y="443px ">-</tspan>--<tspan x="421.097px " y="443px ">G</tspan>CG<tspan x="442.848px " y="443px ">C</tspan>AT<tspan x="464.599px " y="443px ">A</tspan>TG<tspan x="486.349px " y="443px ">C</tspan>GC<tspan x="508.1px " y="443px ">T</tspan>AG</text>
            </g>
            <g transform="matrix(2.77904,0,0,3.08607,566.133,323.458)">
                <text x="355.845px" y="457px" style="font-family:'CourierNewPSMT', 'Courier New', monospace;font-size:12px;">ATG<tspan x="377.596px " y="457px ">C</tspan>TA<tspan x="399.346px " y="457px ">-</tspan>--<tspan x="421.097px " y="457px ">G</tspan>CG<tspan x="442.848px " y="457px ">C</tspan>AT<tspan x="464.599px " y="457px ">A</tspan>TG<tspan x="486.349px " y="457px ">C</tspan>GC<tspan x="508.1px " y="457px ">T</tspan>AG</text>
            </g>
            <g transform="matrix(2.77904,0,0,3.08607,566.133,323.458)">
                <text x="355.845px" y="472px" style="font-family:'CourierNewPS-BoldMT', 'Courier New', monospace;font-weight:700;font-size:12px;fill:rgb(191,144,0);">ATG<tspan x="377.595px " y="472px ">C</tspan>AG<tspan x="399.345px " y="472px ">-</tspan>--<tspan x="421.095px " y="472px ">C</tspan>GT<tspan x="442.845px " y="472px ">-</tspan>AT<tspan x="464.596px " y="472px ">A</tspan>TG<tspan x="486.346px " y="472px ">C</tspan>GG<tspan x="508.096px " y="472px ">-</tspan>--</text>
            </g>
            <g transform="matrix(2.77904,0,0,3.08607,566.133,323.458)">
                <text x="355.845px" y="486px" style="font-family:'CourierNewPS-BoldMT', 'Courier New', monospace;font-weight:700;font-size:12px;fill:rgb(169,209,142);">ATG<tspan x="377.596px " y="486px ">C</tspan>AG<tspan x="399.346px " y="486px ">-</tspan>--<tspan x="421.097px " y="486px ">-</tspan>--<tspan x="442.847px " y="486px ">-</tspan>TA<tspan x="464.598px " y="486px ">T</tspan>AT<tspan x="486.348px " y="486px ">G</tspan>CG<tspan x="508.099px " y="486px ">T</tspan>AG</text>
            </g>
            <g transform="matrix(2.77904,0,0,3.08607,566.133,323.458)">
                <text x="355.845px" y="501px" style="font-family:'CourierNewPS-BoldMT', 'Courier New', monospace;font-weight:700;font-size:12px;fill:rgb(197,90,119);">ATG<tspan x="377.595px " y="501px ">C</tspan>AG<tspan x="399.345px " y="501px ">-</tspan>--<tspan x="421.095px " y="501px ">C</tspan>GT<tspan x="442.845px " y="501px ">-</tspan>AT<tspan x="464.596px " y="501px ">A</tspan>TG<tspan x="486.346px " y="501px ">T</tspan>TG<tspan x="508.096px " y="501px ">-</tspan>--</text>
            </g>
            <g transform="matrix(2.77904,0,0,3.08607,566.133,323.458)">
                <text x="151.593px" y="418px" style="font-family:'CourierNewPS-BoldMT', 'Courier New', monospace;font-weight:700;font-size:12px;fill:rgb(191,144,0);">ATG<tspan x="173.344px " y="418px ">C</tspan>AG<tspan x="195.096px " y="418px ">C</tspan>GT<tspan x="216.847px " y="418px ">A</tspan>TA<tspan x="238.598px " y="418px ">T</tspan>GC<tspan x="260.349px " y="418px ">G</tspan>G</text>
            </g>
            <g transform="matrix(2.77904,0,0,3.08607,566.133,323.458)">
                <text x="151.593px" y="432px" style="font-family:'CourierNewPS-BoldMT', 'Courier New', monospace;font-weight:700;font-size:12px;fill:rgb(169,209,142);">ATG<tspan x="173.344px " y="432px ">C</tspan>AG<tspan x="195.094px " y="432px ">-</tspan>-T<tspan x="216.845px " y="432px ">A</tspan>TA<tspan x="238.596px " y="432px ">T</tspan>GC<tspan x="260.347px " y="432px ">G</tspan>GT<tspan x="282.097px " y="432px ">A</tspan>G</text>
            </g>
            <g transform="matrix(2.77904,0,0,3.08607,566.133,323.458)">
                <text x="151.593px" y="446px" style="font-family:'CourierNewPS-BoldMT', 'Courier New', monospace;font-weight:700;font-size:12px;fill:rgb(197,90,119);">ATG<tspan x="173.344px " y="446px ">C</tspan>AG<tspan x="195.096px " y="446px ">C</tspan>GT<tspan x="216.847px " y="446px ">A</tspan>TA<tspan x="238.598px " y="446px ">T</tspan>GT<tspan x="260.349px " y="446px ">T</tspan>G</text>
            </g>
            <g transform="matrix(2.77904,0,0,3.08607,566.133,323.458)">
                <text x="83.477px" y="324px" style="font-family:'CourierNewPS-BoldMT', 'Courier New', monospace;font-weight:700;font-size:12px;fill:rgb(169,209,142);">NNN<tspan x="105.227px " y="324px ">N</tspan>NN<tspan x="126.978px " y="324px ">N</tspan>NN<tspan x="148.729px " y="324px ">N</tspan>AT<tspan x="170.48px " y="324px ">G</tspan>C-<tspan x="192.231px " y="324px ">A</tspan>GC<tspan x="213.981px " y="324px ">G</tspan>TA<tspan x="235.732px " y="324px ">T</tspan>AT<tspan x="257.483px " y="324px ">G</tspan>CG<tspan x="279.234px " y="324px ">G</tspan>NN<tspan x="300.985px " y="324px ">N</tspan>NN<tspan x="322.736px " y="324px ">N</tspan>NN<tspan x="344.486px " y="324px ">N</tspan>NN<tspan x="366.237px " y="324px ">N</tspan>NN<tspan x="387.988px " y="324px ">N</tspan>NN<tspan x="409.739px " y="324px ">N</tspan>N</text>
            </g>
            <g transform="matrix(2.77904,0,0,3.08607,566.133,323.458)">
                <text x="83.477px" y="337px" style="font-family:'CourierNewPS-BoldMT', 'Courier New', monospace;font-weight:700;font-size:12px;fill:rgb(197,90,119);">NNN<tspan x="105.227px " y="337px ">N</tspan>NN<tspan x="126.978px " y="337px ">N</tspan>NN<tspan x="148.729px " y="337px ">N</tspan>AT<tspan x="170.48px " y="337px ">G</tspan>C-<tspan x="192.231px " y="337px ">A</tspan>GC<tspan x="213.981px " y="337px ">G</tspan>TA<tspan x="235.732px " y="337px ">T</tspan>AT<tspan x="257.483px " y="337px ">G</tspan>CG<tspan x="279.234px " y="337px ">G</tspan>NN<tspan x="300.985px " y="337px ">N</tspan>NN<tspan x="322.736px " y="337px ">N</tspan>NN<tspan x="344.486px " y="337px ">N</tspan>NN<tspan x="366.237px " y="337px ">N</tspan>NN<tspan x="387.988px " y="337px ">N</tspan>NN<tspan x="409.739px " y="337px ">N</tspan>N</text>
            </g>
            <g transform="matrix(9.85056e-10,0.000242998,-0.000218822,1.09388e-09,1037.17,1218.4)">
                <path d="M-111070,111071L111072,111071" style="fill:none;fill-rule:nonzero;stroke:rgb(68,114,196);stroke-width:40544.7px;"/>
            </g>
            <g transform="matrix(9.85056e-10,0.000242998,-0.000218822,1.09388e-09,1052.45,1218.4)">
                <path d="M-111070,111071L111072,111071" style="fill:none;fill-rule:nonzero;stroke:rgb(68,114,196);stroke-width:40544.7px;"/>
            </g>
            <g transform="matrix(9.85056e-10,0.000242998,-0.000218822,1.09388e-09,1073.3,1218.4)">
                <path d="M-111070,111071L111072,111071" style="fill:none;fill-rule:nonzero;stroke:rgb(68,114,196);stroke-width:40544.7px;"/>
            </g>
            <g transform="matrix(9.85056e-10,0.000242998,-0.000218822,1.09388e-09,1089.97,1218.4)">
                <path d="M-111070,111071L111072,111071" style="fill:none;fill-rule:nonzero;stroke:rgb(68,114,196);stroke-width:40544.7px;"/>
            </g>
            <g transform="matrix(9.85056e-10,0.000242998,-0.000218822,1.09388e-09,1127.49,1218.4)">
                <path d="M-111070,111071L111072,111071" style="fill:none;fill-rule:nonzero;stroke:rgb(68,114,196);stroke-width:40544.7px;"/>
            </g>
            <g transform="matrix(9.85056e-10,0.000242998,-0.000218822,1.09388e-09,1148.33,1218.4)">
                <path d="M-111070,111071L111072,111071" style="fill:none;fill-rule:nonzero;stroke:rgb(68,114,196);stroke-width:40544.7px;"/>
            </g>
            <g transform="matrix(9.85056e-10,0.000242998,-0.000218822,1.09388e-09,1167.78,1218.4)">
                <path d="M-111070,111071L111072,111071" style="fill:none;fill-rule:nonzero;stroke:rgb(68,114,196);stroke-width:40544.7px;"/>
            </g>
            <g transform="matrix(9.85056e-10,0.000242998,-0.000218822,1.09388e-09,1188.63,1218.4)">
                <path d="M-111070,111071L111072,111071" style="fill:none;fill-rule:nonzero;stroke:rgb(68,114,196);stroke-width:40544.7px;"/>
            </g>
            <g transform="matrix(9.85056e-10,0.000242998,-0.000218822,1.09388e-09,1208.08,1218.4)">
                <path d="M-111070,111071L111072,111071" style="fill:none;fill-rule:nonzero;stroke:rgb(68,114,196);stroke-width:40544.7px;"/>
            </g>
            <g transform="matrix(9.85056e-10,0.000242998,-0.000218822,1.09388e-09,1227.53,1218.4)">
                <path d="M-111070,111071L111072,111071" style="fill:none;fill-rule:nonzero;stroke:rgb(68,114,196);stroke-width:40544.7px;"/>
            </g>
            <g transform="matrix(9.85056e-10,0.000242998,-0.000218822,1.09388e-09,1249.77,1218.4)">
                <path d="M-111070,111071L111072,111071" style="fill:none;fill-rule:nonzero;stroke:rgb(68,114,196);stroke-width:40544.7px;"/>
            </g>
            <g transform="matrix(9.85056e-10,0.000242998,-0.000218822,1.09388e-09,1269.22,1218.4)">
                <path d="M-111070,111071L111072,111071" style="fill:none;fill-rule:nonzero;stroke:rgb(68,114,196);stroke-width:40544.7px;"/>
            </g>
            <g transform="matrix(9.85056e-10,0.000242998,-0.000218822,1.09388e-09,1288.67,1218.4)">
                <path d="M-111070,111071L111072,111071" style="fill:none;fill-rule:nonzero;stroke:rgb(68,114,196);stroke-width:40544.7px;"/>
            </g>
            <g transform="matrix(9.85056e-10,0.000242998,-0.000218822,1.09388e-09,1309.52,1218.4)">
                <path d="M-111070,111071L111072,111071" style="fill:none;fill-rule:nonzero;stroke:rgb(68,114,196);stroke-width:40544.7px;"/>
            </g>
            <g transform="matrix(9.85056e-10,0.000242998,-0.000218822,1.09388e-09,1328.97,1218.4)">
                <path d="M-111070,111071L111072,111071" style="fill:none;fill-rule:nonzero;stroke:rgb(68,114,196);stroke-width:40544.7px;"/>
            </g>
            <g transform="matrix(9.85056e-10,0.000242998,-0.000218822,1.09388e-09,1348.42,1218.4)">
                <path d="M-111070,111071L111072,111071" style="fill:none;fill-rule:nonzero;stroke:rgb(68,114,196);stroke-width:40544.7px;"/>
            </g>
            <g transform="matrix(0.000218822,0,0,-0.000242998,867.66,567.258)">
                <rect x="0" y="0" width="2.52095e+06" height="666750" style="fill:none;stroke:rgb(24,23,23);stroke-width:18019.9px;stroke-dasharray:18019.9,18019.9;"/>
            </g>
            <g transform="matrix(0.000218822,0,0,-0.000242998,910.735,1937.47)">
                <rect x="0" y="0" width="2.52095e+06" height="666750" style="fill:none;stroke:rgb(24,23,23);stroke-width:18019.9px;stroke-dasharray:18019.9,18019.9;"/>
            </g>
            <g transform="matrix(2.77904,0,0,3.08607,566.133,-907.318)">
                <path d="M215.5,473.567L215.5,474.067L215,474.067L215,473.567L215.5,473.567ZM215.5,474.567L215.5,475.067L215,475.067L215,474.567L215.5,474.567ZM215.5,475.567L215.5,476.067L215,476.067L215,475.567L215.5,475.567ZM215.5,476.567L215.5,477.067L215,477.067L215,476.567L215.5,476.567ZM215.5,477.567L215.5,478.067L215,478.067L215,477.567L215.5,477.567ZM215.5,478.567L215.5,479.067L215,479.067L215,478.567L215.5,478.567ZM215.5,479.567L215.5,480.067L215,480.067L215,479.567L215.5,479.567ZM215.5,480.567L215.5,481.067L215,481.067L215,480.567L215.5,480.567ZM215.5,481.567L215.5,482.067L215,482.067L215,481.567L215.5,481.567ZM215.5,482.567L215.5,483.067L215,483.067L215,482.567L215.5,482.567ZM215.5,483.567L215.5,484.067L215,484.067L215,483.567L215.5,483.567ZM215.5,484.567L215.5,485.067L215,485.067L215,484.567L215.5,484.567ZM215.5,485.567L215.5,486.067L215,486.067L215,485.567L215.5,485.567ZM215.5,486.567L215.5,487.067L215,487.067L215,486.567L215.5,486.567ZM215.5,487.567L215.5,488.067L215,488.067L215,487.567L215.5,487.567ZM215.5,488.567L215.5,489.067L215,489.067L215,488.567L215.5,488.567ZM215.5,489.567L215.5,490.067L215,490.067L215,489.567L215.5,489.567ZM215.5,490.567L215.5,491.067L215,491.067L215,490.567L215.5,490.567ZM215.5,491.567L215.5,492.067L215,492.067L215,491.567L215.5,491.567ZM215.5,492.567L215.5,493.067L215,493.067L215,492.567L215.5,492.567ZM215.5,493.567L215.5,494.067L215,494.067L215,493.567L215.5,493.567ZM215.5,494.567L215.5,495.067L215,495.067L215,494.567L215.5,494.567ZM215.5,495.567L215.5,496.067L215,496.067L215,495.567L215.5,495.567ZM215.5,496.567L215.5,497.067L215,497.067L215,496.567L215.5,496.567ZM215.5,497.567L215.5,498.067L215,498.067L215,497.567L215.5,497.567ZM215.5,498.567L215.5,499.067L215,499.067L215,498.567L215.5,498.567ZM215.5,499.567L215.5,500.067L215,500.067L215,499.567L215.5,499.567ZM215.5,500.567L215.5,501.067L215,501.067L215,500.567L215.5,500.567ZM215.5,501.567L215.5,502.067L215,502.067L215,501.567L215.5,501.567ZM218.25,501.25L215.25,507.25L212.25,501.25L218.25,501.25Z" style="fill-rule:nonzero;"/>
            </g>
            <g transform="matrix(2.77904,0,0,3.08607,566.133,-438.337)">
                <path d="M343.179,399.135L343.109,399.63L342.614,399.56L342.684,399.065L343.179,399.135ZM343.038,400.125L342.989,400.468L342.905,400.669L342.444,400.475L342.516,400.304L342.499,400.366L342.543,400.055L343.038,400.125ZM342.71,401.13L342.516,401.591L342.056,401.396L342.25,400.936L342.71,401.13ZM342.247,402.069L341.961,402.48L341.551,402.195L341.836,401.784L342.247,402.069ZM341.676,402.89L341.495,403.152L341.341,403.312L340.981,402.965L341.121,402.82L341.095,402.85L341.266,402.605L341.676,402.89ZM340.994,403.672L340.648,404.032L340.287,403.686L340.634,403.325L340.994,403.672ZM340.301,404.393L340.233,404.463L339.898,404.736L339.582,404.349L339.906,404.085L339.884,404.105L339.941,404.046L340.301,404.393ZM339.511,405.052L339.123,405.368L338.807,404.981L339.195,404.665L339.511,405.052ZM338.736,405.684L338.648,405.755L338.308,405.984L338.029,405.569L338.36,405.347L338.341,405.361L338.42,405.297L338.736,405.684ZM337.893,406.263L337.477,406.542L337.199,406.127L337.614,405.848L337.893,406.263ZM337.063,406.821L336.751,407.03L336.627,407.101L336.379,406.667L336.495,406.6L336.48,406.61L336.784,406.406L337.063,406.821ZM336.193,407.349L335.759,407.597L335.511,407.163L335.945,406.915L336.193,407.349ZM335.325,407.845L334.89,408.093L334.642,407.659L335.076,407.411L335.325,407.845ZM334.44,408.342L333.992,408.564L333.77,408.116L334.218,407.894L334.44,408.342ZM333.545,408.787L333.097,409.009L332.874,408.561L333.322,408.339L333.545,408.787ZM332.649,409.231L332.201,409.454L331.979,409.006L332.426,408.784L332.649,409.231ZM331.735,409.666L331.277,409.867L331.077,409.409L331.535,409.208L331.735,409.666ZM330.82,410.068L330.362,410.269L330.161,409.811L330.619,409.61L330.82,410.068ZM329.904,410.47L329.446,410.67L329.245,410.213L329.703,410.012L329.904,410.47ZM328.974,410.863L328.508,411.045L328.326,410.58L328.791,410.397L328.974,410.863ZM328.043,411.228L327.577,411.41L327.395,410.945L327.86,410.762L328.043,411.228ZM327.112,411.593L326.646,411.775L326.464,411.31L326.929,411.127L327.112,411.593ZM326.172,411.958L325.701,412.125L325.534,411.653L326.005,411.487L326.172,411.958ZM325.229,412.292L324.758,412.458L324.591,411.987L325.062,411.82L325.229,412.292ZM324.286,412.625L323.815,412.792L323.648,412.32L324.12,412.154L324.286,412.625ZM323.344,412.959L322.974,413.089L322.864,413.125L322.711,412.648L322.817,412.615L322.81,412.617L323.177,412.487L323.344,412.959ZM322.388,413.277L321.912,413.43L321.759,412.954L322.235,412.801L322.388,413.277ZM321.436,413.583L320.96,413.736L320.807,413.26L321.283,413.107L321.436,413.583ZM320.484,413.889L320.008,414.042L319.855,413.566L320.331,413.413L320.484,413.889ZM319.532,414.195L319.439,414.225L319.047,414.34L318.906,413.86L319.295,413.746L319.289,413.748L319.379,413.719L319.532,414.195ZM318.567,414.48L318.087,414.621L317.946,414.141L318.426,414.001L318.567,414.48ZM317.607,414.762L317.128,414.902L316.987,414.423L317.467,414.282L317.607,414.762ZM316.648,415.043L316.168,415.184L316.027,414.704L316.507,414.563L316.648,415.043ZM315.688,415.324L315.671,415.329L315.2,415.456L315.07,414.973L315.538,414.847L315.533,414.849L315.548,414.845L315.688,415.324ZM314.717,415.585L314.234,415.715L314.104,415.232L314.587,415.103L314.717,415.585ZM313.751,415.845L313.268,415.974L313.139,415.491L313.621,415.362L313.751,415.845ZM312.785,416.104L312.303,416.234L312.173,415.751L312.656,415.621L312.785,416.104ZM311.82,416.363L311.681,416.4L311.33,416.487L311.21,416.002L311.559,415.916L311.554,415.917L311.69,415.881L311.82,416.363ZM310.844,416.607L310.359,416.727L310.239,416.241L310.725,416.121L310.844,416.607ZM309.874,416.846L309.388,416.966L309.268,416.48L309.754,416.361L309.874,416.846ZM308.902,417.086L308.417,417.205L308.297,416.72L308.783,416.6L308.902,417.086ZM307.932,417.325L307.482,417.436L307.441,417.445L307.331,416.957L307.369,416.949L307.365,416.95L307.812,416.84L307.932,417.325ZM306.954,417.556L306.466,417.666L306.356,417.179L306.843,417.068L306.954,417.556ZM305.978,417.777L305.491,417.887L305.38,417.4L305.868,417.289L305.978,417.777ZM305.003,417.998L304.516,418.108L304.405,417.621L304.893,417.51L305.003,417.998ZM304.028,418.219L303.54,418.33L303.43,417.842L303.917,417.731L304.028,418.219ZM303.046,418.441L302.556,418.539L302.458,418.048L302.948,417.95L303.046,418.441ZM302.066,418.637L301.575,418.735L301.477,418.244L301.968,418.146L302.066,418.637ZM301.085,418.833L300.595,418.931L300.497,418.441L300.987,418.342L301.085,418.833ZM300.105,419.029L299.614,419.127L299.516,418.637L300.007,418.539L300.105,419.029ZM299.124,419.225L298.634,419.323L298.536,418.833L299.026,418.735L299.124,419.225ZM298.144,419.421L297.653,419.519L297.555,419.029L298.045,418.931L298.144,419.421ZM297.163,419.617L296.673,419.715L296.575,419.225L297.065,419.127L297.163,419.617ZM296.182,419.814L295.692,419.912L295.594,419.421L296.084,419.323L296.182,419.814ZM295.202,420.01L294.711,420.108L294.613,419.618L295.104,419.519L295.202,420.01ZM294.221,420.206L293.74,420.302L293.723,420.305L293.64,419.812L293.653,419.81L293.646,419.811L294.123,419.716L294.221,420.206ZM293.23,420.388L292.737,420.471L292.654,419.978L293.147,419.895L293.23,420.388ZM292.244,420.554L291.751,420.637L291.668,420.144L292.161,420.061L292.244,420.554ZM291.258,420.721L290.765,420.804L290.682,420.311L291.175,420.227L291.258,420.721ZM290.272,420.887L289.779,420.97L289.696,420.477L290.189,420.394L290.272,420.887ZM289.286,421.053L288.793,421.136L288.71,420.643L289.203,420.56L289.286,421.053ZM288.3,421.219L287.807,421.302L287.724,420.809L288.217,420.726L288.3,421.219ZM287.314,421.386L286.821,421.469L286.738,420.976L287.231,420.893L287.314,421.386ZM286.328,421.552L285.835,421.635L285.752,421.142L286.245,421.059L286.328,421.552ZM285.342,421.718L284.849,421.801L284.765,421.308L285.258,421.225L285.342,421.718ZM284.356,421.884L283.863,421.967L283.779,421.474L284.272,421.391L284.356,421.884ZM283.361,422.041L282.866,422.111L282.796,421.616L283.292,421.546L283.361,422.041ZM282.371,422.18L281.876,422.25L281.806,421.755L282.301,421.685L282.371,422.18ZM281.381,422.319L280.885,422.389L280.816,421.894L281.311,421.824L281.381,422.319ZM280.39,422.458L279.895,422.528L279.826,422.033L280.321,421.963L280.39,422.458ZM279.4,422.597L278.905,422.667L278.835,422.172L279.33,422.102L279.4,422.597ZM278.41,422.736L277.914,422.806L277.845,422.311L278.34,422.241L278.41,422.736ZM277.419,422.875L276.924,422.945L276.855,422.45L277.35,422.38L277.419,422.875ZM276.429,423.014L275.934,423.084L275.864,422.589L276.36,422.519L276.429,423.014ZM275.439,423.153L274.944,423.223L274.874,422.728L275.369,422.658L275.439,423.153ZM274.448,423.292L273.953,423.362L273.884,422.867L274.379,422.797L274.448,423.292ZM273.458,423.431L273.184,423.47L272.956,423.496L272.899,422.999L273.124,422.973L273.118,422.974L273.389,422.936L273.458,423.431ZM272.459,423.553L271.962,423.609L271.906,423.113L272.402,423.056L272.459,423.553ZM271.465,423.666L270.969,423.723L270.912,423.226L271.409,423.169L271.465,423.666ZM270.472,423.779L269.975,423.836L269.918,423.339L270.415,423.282L270.472,423.779ZM269.478,423.893L268.982,423.949L268.925,423.453L269.422,423.396L269.478,423.893ZM268.485,424.006L267.988,424.063L267.931,423.566L268.428,423.509L268.485,424.006ZM267.491,424.119L266.995,424.176L266.938,423.679L267.435,423.623L267.491,424.119ZM266.498,424.233L266.001,424.289L265.944,423.793L266.441,423.736L266.498,424.233ZM265.504,424.346L265.007,424.403L264.951,423.906L265.448,423.849L265.504,424.346ZM264.511,424.46L264.014,424.516L263.957,424.02L264.454,423.963L264.511,424.46ZM263.517,424.573L263.02,424.63L262.964,424.133L263.46,424.076L263.517,424.573ZM262.524,424.686L262.158,424.728L262.02,424.74L261.976,424.242L262.111,424.23L262.105,424.231L262.467,424.19L262.524,424.686ZM261.522,424.785L261.024,424.829L260.98,424.331L261.478,424.287L261.522,424.785ZM260.526,424.873L260.028,424.918L259.984,424.42L260.482,424.375L260.526,424.873ZM259.53,424.962L259.032,425.006L258.988,424.508L259.486,424.464L259.53,424.962ZM258.534,425.05L258.036,425.095L257.992,424.597L258.49,424.552L258.534,425.05ZM257.538,425.139L257.04,425.183L256.996,424.685L257.494,424.641L257.538,425.139ZM256.542,425.228L256.044,425.272L256,424.774L256.498,424.729L256.542,425.228ZM255.546,425.316L255.048,425.361L255.003,424.862L255.502,424.818L255.546,425.316ZM254.55,425.405L254.052,425.449L254.007,424.951L254.505,424.907L254.55,425.405ZM253.554,425.493L253.056,425.538L253.011,425.04L253.509,424.995L253.554,425.493ZM252.558,425.582L252.06,425.626L252.015,425.128L252.513,425.084L252.558,425.582ZM251.562,425.671L251.063,425.715L251.019,425.217L251.517,425.172L251.562,425.671ZM250.559,425.755L250.06,425.787L250.028,425.288L250.527,425.256L250.559,425.755ZM249.561,425.819L249.062,425.851L249.03,425.352L249.529,425.32L249.561,425.819ZM248.563,425.883L248.064,425.915L248.032,425.416L248.531,425.384L248.563,425.883ZM247.565,425.947L247.066,425.979L247.034,425.48L247.533,425.448L247.565,425.947ZM246.567,426.011L246.068,426.043L246.036,425.544L246.535,425.512L246.567,426.011ZM245.569,426.075L245.07,426.107L245.038,425.608L245.537,425.576L245.569,426.075ZM244.571,426.139L244.072,426.171L244.04,425.672L244.539,425.64L244.571,426.139ZM243.573,426.203L243.074,426.235L243.042,425.736L243.541,425.704L243.573,426.203ZM242.575,426.267L242.076,426.299L242.044,425.8L242.543,425.768L242.575,426.267ZM241.577,426.331L241.079,426.363L241.046,425.864L241.545,425.832L241.577,426.331ZM240.579,426.395L240.081,426.427L240.048,425.928L240.547,425.896L240.579,426.395ZM239.582,426.459L239.083,426.491L239.051,425.992L239.549,425.96L239.582,426.459ZM238.577,426.511L238.077,426.531L238.058,426.031L238.557,426.011L238.577,426.511ZM237.577,426.55L237.078,426.57L237.058,426.07L237.558,426.051L237.577,426.55ZM236.578,426.589L236.079,426.609L236.059,426.109L236.559,426.09L236.578,426.589ZM235.579,426.628L235.079,426.648L235.06,426.148L235.559,426.129L235.579,426.628ZM234.58,426.667L234.08,426.687L234.061,426.187L234.56,426.168L234.58,426.667ZM233.581,426.707L233.081,426.726L233.061,426.227L233.561,426.207L233.581,426.707ZM232.581,426.746L232.082,426.765L232.062,426.266L232.562,426.246L232.581,426.746ZM231.582,426.785L231.083,426.804L231.063,426.305L231.563,426.285L231.582,426.785ZM230.583,426.824L230.083,426.844L230.064,426.344L230.563,426.324L230.583,426.824ZM229.584,426.863L229.084,426.883L229.064,426.383L229.564,426.364L229.584,426.863ZM228.584,426.902L228.085,426.922L228.065,426.422L228.565,426.403L228.584,426.902ZM227.585,426.941L227.211,426.956L227.079,426.958L227.072,426.458L227.201,426.456L227.195,426.456L227.566,426.442L227.585,426.941ZM226.579,426.964L226.079,426.971L226.072,426.471L226.572,426.465L226.579,426.964ZM225.579,426.978L225.079,426.984L225.073,426.484L225.573,426.478L225.579,426.978ZM224.579,426.991L224.079,426.998L224.073,426.498L224.573,426.491L224.579,426.991ZM223.579,427.004L223.079,427.011L223.073,426.511L223.573,426.504L223.579,427.004ZM222.579,427.018L222.079,427.024L222.073,426.524L222.573,426.518L222.579,427.018ZM221.579,427.031L221.079,427.038L221.073,426.538L221.573,426.531L221.579,427.031ZM220.58,427.044L220.253,427.049L220.246,426.549L220.573,426.544L220.58,427.044ZM221.289,429.785L215.25,426.865L221.209,423.786L221.289,429.785Z" style="fill-rule:nonzero;"/>
            </g>
            <g transform="matrix(2.77904,0,0,3.08607,566.133,-336.17)">
                <path d="M215.5,373.494L215.5,373.994L215,373.994L215,373.494L215.5,373.494ZM215.5,374.494L215.5,374.994L215,374.994L215,374.494L215.5,374.494ZM215.5,375.494L215.5,375.994L215,375.994L215,375.494L215.5,375.494ZM215.5,376.494L215.5,376.994L215,376.994L215,376.494L215.5,376.494ZM215.5,377.494L215.5,377.994L215,377.994L215,377.494L215.5,377.494ZM215.5,378.494L215.5,378.994L215,378.994L215,378.494L215.5,378.494ZM215.5,379.494L215.5,379.994L215,379.994L215,379.494L215.5,379.494ZM215.5,380.494L215.5,380.994L215,380.994L215,380.494L215.5,380.494ZM215.5,381.494L215.5,381.994L215,381.994L215,381.494L215.5,381.494ZM215.5,382.494L215.5,382.994L215,382.994L215,382.494L215.5,382.494ZM215.5,383.494L215.5,383.994L215,383.994L215,383.494L215.5,383.494ZM215.5,384.494L215.5,384.994L215,384.994L215,384.494L215.5,384.494ZM215.5,385.494L215.5,385.994L215,385.994L215,385.494L215.5,385.494ZM215.5,386.494L215.5,386.994L215,386.994L215,386.494L215.5,386.494ZM215.5,387.494L215.5,387.994L215,387.994L215,387.494L215.5,387.494ZM215.5,388.494L215.5,388.994L215,388.994L215,388.494L215.5,388.494ZM215.5,389.494L215.5,389.994L215,389.994L215,389.494L215.5,389.494ZM215.5,390.494L215.5,390.994L215,390.994L215,390.494L215.5,390.494ZM215.5,391.494L215.5,391.994L215,391.994L215,391.494L215.5,391.494ZM215.5,392.494L215.5,392.994L215,392.994L215,392.494L215.5,392.494ZM215.5,393.494L215.5,393.994L215,393.994L215,393.494L215.5,393.494ZM215.5,394.494L215.5,394.994L215,394.994L215,394.494L215.5,394.494ZM215.5,395.494L215.5,395.994L215,395.994L215,395.494L215.5,395.494ZM215.5,396.494L215.5,396.994L215,396.994L215,396.494L215.5,396.494ZM215.5,397.494L215.5,397.994L215,397.994L215,397.494L215.5,397.494ZM215.5,398.494L215.5,398.994L215,398.994L215,398.494L215.5,398.494ZM215.5,399.494L215.5,399.994L215,399.994L215,399.494L215.5,399.494ZM215.5,400.494L215.5,400.994L215,400.994L215,400.494L215.5,400.494ZM215.5,401.494L215.5,401.994L215,401.994L215,401.494L215.5,401.494ZM215.5,402.494L215.5,402.994L215,402.994L215,402.494L215.5,402.494ZM215.5,403.494L215.5,403.994L215,403.994L215,403.494L215.5,403.494ZM215.5,404.494L215.5,404.994L215,404.994L215,404.494L215.5,404.494ZM215.5,405.494L215.5,405.994L215,405.994L215,405.494L215.5,405.494ZM215.5,406.494L215.5,406.994L215,406.994L215,406.494L215.5,406.494ZM215.5,407.494L215.5,407.994L215,407.994L215,407.494L215.5,407.494ZM215.5,408.494L215.5,408.994L215,408.994L215,408.494L215.5,408.494ZM215.5,409.494L215.5,409.994L215,409.994L215,409.494L215.5,409.494ZM215.5,410.494L215.5,410.994L215,410.994L215,410.494L215.5,410.494ZM215.5,411.494L215.5,411.994L215,411.994L215,411.494L215.5,411.494ZM215.5,412.494L215.5,412.994L215,412.994L215,412.494L215.5,412.494ZM215.5,413.494L215.5,413.994L215,413.994L215,413.494L215.5,413.494ZM215.5,414.494L215.5,414.994L215,414.994L215,414.494L215.5,414.494ZM215.5,415.494L215.5,415.994L215,415.994L215,415.494L215.5,415.494ZM215.5,416.494L215.5,416.994L215,416.994L215,416.494L215.5,416.494ZM218.25,416.25L215.25,422.25L212.25,416.25L218.25,416.25Z" style="fill-rule:nonzero;"/>
            </g>
            <g transform="matrix(0.000218822,0,0,-0.000242998,1526.99,1895.04)">
                <rect x="0" y="0" width="2.41935e+06" height="1.2065e+06" style="fill:none;stroke:rgb(24,23,23);stroke-width:40544.7px;"/>
            </g>
            <g transform="matrix(2.77904,0,0,3.08607,566.133,783.282)">
                <rect x="191" y="206" width="55" height="21" style="fill:rgb(169,209,142);stroke:black;stroke-width:1.42px;"/>
            </g>
            <g transform="matrix(2.77904,0,0,3.08607,566.133,807.971)">
                <rect x="194.5" y="202" width="55" height="21" style="fill:rgb(169,209,142);stroke:black;stroke-width:1.42px;"/>
            </g>
            <g transform="matrix(2.77904,0,0,3.08607,566.133,834.203)">
                <rect x="198.5" y="197.5" width="54.5" height="21.5" style="fill:rgb(169,209,142);stroke:black;stroke-width:1.42px;"/>
            </g>
            <g transform="matrix(2.77904,0,0,3.08607,566.133,778.653)">
                <rect x="268.5" y="206.5" width="55" height="21.5" style="fill:rgb(197,90,119);stroke:black;stroke-width:1.42px;"/>
            </g>
            <g transform="matrix(2.77904,0,0,3.08607,566.133,803.342)">
                <rect x="272.5" y="202.5" width="54.5" height="21.5" style="fill:rgb(197,90,119);stroke:black;stroke-width:1.42px;"/>
            </g>
            <g transform="matrix(2.77904,0,0,3.08607,566.133,829.573)">
                <rect x="276" y="198.5" width="54.5" height="21" style="fill:rgb(197,90,119);stroke:black;stroke-width:1.42px;"/>
            </g>
            <g transform="matrix(0.000218822,0,0,-0.000242998,966.316,1732.25)">
                <rect x="0" y="0" width="2.0701e+06" height="666750" style="fill:none;stroke:rgb(24,23,23);stroke-width:18019.9px;stroke-dasharray:18019.9,18019.9;"/>
            </g>
            <g transform="matrix(2.77904,0,0,3.08607,566.133,781.739)">
                <rect x="117" y="206" width="54.5" height="21.5" style="fill:rgb(191,144,0);stroke:black;stroke-width:1.42px;"/>
            </g>
            <g transform="matrix(2.77904,0,0,3.08607,566.133,804.885)">
                <rect x="120.5" y="202.5" width="54.5" height="21" style="fill:rgb(191,144,0);stroke:black;stroke-width:1.42px;"/>
            </g>
            <g transform="matrix(2.77904,0,0,3.08607,566.133,831.116)">
                <rect x="124" y="198" width="54.5" height="21.5" style="fill:rgb(191,144,0);stroke:black;stroke-width:1.42px;"/>
            </g>
            <g transform="matrix(2.77904,0,0,3.08607,566.133,314.2)">
                <path d="M315.5,285.167C315.5,283.142 317.142,281.5 319.167,281.5L420.333,281.5C422.358,281.5 424,283.142 424,285.167L424,299.833C424,301.858 422.358,303.5 420.333,303.5L319.167,303.5C317.142,303.5 315.5,301.858 315.5,299.833L315.5,285.167Z" style="fill:rgb(175,171,171);stroke:rgb(175,171,171);stroke-width:1.42px;"/>
            </g>
            <g transform="matrix(2.77904,0,0,3.08607,566.133,-1389.31)">
                <path d="M120.5,561.167C120.5,559.142 122.142,557.5 124.167,557.5L294.333,557.5C296.358,557.5 298,559.142 298,561.167L298,575.833C298,577.858 296.358,579.5 294.333,579.5L124.167,579.5C122.142,579.5 120.5,577.858 120.5,575.833L120.5,561.167Z" style="fill:rgb(175,171,171);stroke:rgb(175,171,171);stroke-width:1.42px;"/>
            </g>
            <g transform="matrix(2.77904,0,0,3.08607,566.133,323.458)">
                <text x="331.024px" y="293px" style="font-family:'AvenirNextCondensed-Italic', 'Avenir Next Condensed', sans-serif;font-style:italic;font-stretch:condensed;font-size:14px;">T<tspan x="335.26px 340.897px " y="293px 293px ">ar</tspan>ge<tspan x="356.91px 360.39px 363.071px " y="293px 293px 293px ">t g</tspan>en<tspan x="381.969px " y="293px ">o</tspan></text>
                <text x="388.109px" y="293px" style="font-family:'AvenirNextCondensed-Italic', 'Avenir Next Condensed', sans-serif;font-style:italic;font-stretch:condensed;font-size:14px;">mes</text>
            </g>
            <g transform="matrix(2.77904,0,0,3.08607,566.133,323.458)">
                <text x="142.984px" y="17px" style="font-family:'AvenirNextCondensed-Italic', 'Avenir Next Condensed', sans-serif;font-style:italic;font-stretch:condensed;font-size:14px;">Mul</text>
                <text x="162.363px" y="17px" style="font-family:'AvenirNextCondensed-Italic', 'Avenir Next Condensed', sans-serif;font-style:italic;font-stretch:condensed;font-size:14px;">t</text>
                <text x="165.868px" y="17px" style="font-family:'AvenirNextCondensed-Italic', 'Avenir Next Condensed', sans-serif;font-style:italic;font-stretch:condensed;font-size:14px;">iple species <tspan x="224.871px " y="17px ">a</tspan>li</text>
                <text x="236.529px" y="17px" style="font-family:'AvenirNextCondensed-Italic', 'Avenir Next Condensed', sans-serif;font-style:italic;font-stretch:condensed;font-size:14px;">gn</text>
                <text x="249.533px" y="17px" style="font-family:'AvenirNextCondensed-Italic', 'Avenir Next Condensed', sans-serif;font-style:italic;font-stretch:condensed;font-size:14px;">m</text>
                <text x="259.408px" y="17px" style="font-family:'AvenirNextCondensed-Italic', 'Avenir Next Condensed', sans-serif;font-style:italic;font-stretch:condensed;font-size:14px;">ent</text>
            </g>
            <g transform="matrix(2.77904,0,0,3.08607,566.133,323.458)">
                <text x="13.644px" y="337.5px" style="font-family:'CourierNewPSMT', 'Courier New', monospace;font-size:12px;fill:rgb(197,90,119);">Thy<tspan x="35.395px " y="337.5px ">C</tspan>yn<tspan x="57.147px " y="337.5px ">2</tspan>.0</text>
            </g>
            <g transform="matrix(2.77904,0,0,3.08607,566.133,323.458)">
                <text x="7.599px" y="311px" style="font-family:'CourierNewPSMT', 'Courier New', monospace;font-size:12px;fill:rgb(191,144,0);">Das<tspan x="29.351px " y="311px ">V</tspan>iv<tspan x="51.102px " y="311px ">v</tspan>1.<tspan x="72.853px " y="311px ">0</tspan></text>
            </g>
            <g transform="matrix(2.77904,0,0,3.08607,566.133,323.458)">
                <text x="22.515px" y="323.5px" style="font-family:'CourierNewPSMT', 'Courier New', monospace;font-size:12px;fill:rgb(169,209,142);">mMy<tspan x="44.266px " y="323.5px ">r</tspan>Fa<tspan x="66.017px " y="323.5px ">s</tspan>1</text>
            </g>
        </g>
    </g>
</svg>
